<svg xmlns="http://www.w3.org/2000/svg" width="1280" height="720" viewBox="0 0 1280 720" fill="none">
  <rect width="1280" height="720" fill="#0B111B"/>
  <rect x="24" y="20" width="56" height="680" rx="12" fill="#121927" stroke="#243047"/>
  <rect x="96" y="20" width="242" height="680" rx="12" fill="#121927" stroke="#243047"/>
  <rect x="358" y="20" width="898" height="680" rx="16" fill="#0E1624" stroke="#243047"/>
  <text x="392" y="74" fill="#E2E8F0" font-family="Arial, sans-serif" font-size="40" font-weight="700">QLab</text>
  <text x="484" y="74" fill="#00D4AA" font-family="Arial, sans-serif" font-size="40" font-weight="700">Query Builder</text>
  <rect x="392" y="106" width="830" height="314" rx="14" fill="#121927" stroke="#243047"/>
  <rect x="424" y="146" width="152" height="38" rx="8" fill="#182132" stroke="#2E3C57"/>
  <rect x="590" y="146" width="112" height="38" rx="8" fill="#00D4AA18" stroke="#00D4AA"/>
  <text x="430" y="138" fill="#8795AB" font-family="Arial, sans-serif" font-size="16">FROM</text>
  <text x="426" y="171" fill="#E2E8F0" font-family="Arial, sans-serif" font-size="20">Device</text>
  <text x="620" y="171" fill="#00D4AA" font-family="Arial, sans-serif" font-size="20" font-weight="700">active</text>
  <text x="430" y="224" fill="#8795AB" font-family="Arial, sans-serif" font-size="16">SELECT</text>
  <rect x="506" y="198" width="116" height="34" rx="8" fill="#00D4AA18" stroke="#00D4AA"/>
  <rect x="634" y="198" width="146" height="34" rx="8" fill="#00D4AA18" stroke="#00D4AA"/>
  <rect x="792" y="198" width="142" height="34" rx="8" fill="#182132" stroke="#2E3C57" stroke-dasharray="5 5"/>
  <text x="530" y="220" fill="#00D4AA" font-family="Arial, sans-serif" font-size="18">id</text>
  <text x="658" y="220" fill="#00D4AA" font-family="Arial, sans-serif" font-size="18">businessgroup</text>
  <text x="815" y="220" fill="#8795AB" font-family="Arial, sans-serif" font-size="18">+ Add Field</text>
  <rect x="424" y="258" width="764" height="124" rx="12" fill="#182132" stroke="#2E3C57"/>
  <rect x="446" y="280" width="128" height="38" rx="8" fill="#FFFFFF" fill-opacity="0.08" stroke="#2E3C57"/>
  <rect x="588" y="280" width="90" height="38" rx="8" fill="#121927" stroke="#2E3C57"/>
  <rect x="692" y="280" width="470" height="38" rx="8" fill="#121927" stroke="#2E3C57"/>
  <text x="450" y="270" fill="#8795AB" font-family="Arial, sans-serif" font-size="16">WHERE</text>
  <text x="470" y="304" fill="#E2E8F0" font-family="Arial, sans-serif" font-size="18">status</text>
  <text x="618" y="304" fill="#F59E0B" font-family="Arial, sans-serif" font-size="18">is</text>
  <text x="720" y="304" fill="#8795AB" font-family="Arial, sans-serif" font-size="18">active</text>
  <rect x="446" y="330" width="116" height="30" rx="8" fill="#121927" stroke="#2E3C57"/>
  <rect x="576" y="330" width="112" height="30" rx="8" fill="#121927" stroke="#2E3C57"/>
  <text x="474" y="350" fill="#E2E8F0" font-family="Arial, sans-serif" font-size="16">AND</text>
  <text x="602" y="350" fill="#E2E8F0" font-family="Arial, sans-serif" font-size="16">+ Group</text>
  <rect x="424" y="444" width="830" height="222" rx="14" fill="#121927" stroke="#243047"/>
  <text x="452" y="482" fill="#00D4AA" font-family="Arial, sans-serif" font-size="20" font-weight="700">3 results</text>
  <rect x="452" y="520" width="774" height="1" fill="#243047"/>
  <text x="452" y="554" fill="#8795AB" font-family="Arial, sans-serif" font-size="15">BUSINESSGROUP</text>
  <text x="706" y="554" fill="#8795AB" font-family="Arial, sans-serif" font-size="15">ID</text>
  <text x="840" y="554" fill="#8795AB" font-family="Arial, sans-serif" font-size="15">NAME</text>
  <text x="1018" y="554" fill="#8795AB" font-family="Arial, sans-serif" font-size="15">STATUS</text>
  <rect x="452" y="574" width="774" height="1" fill="#243047"/>
  <text x="452" y="602" fill="#E2E8F0" font-family="Arial, sans-serif" font-size="18">1</text>
  <text x="706" y="602" fill="#4A9EFF" font-family="Arial, sans-serif" font-size="18">1</text>
  <text x="840" y="602" fill="#E2E8F0" font-family="Arial, sans-serif" font-size="18">edge-router-01</text>
  <text x="1018" y="602" fill="#00D4AA" font-family="Arial, sans-serif" font-size="18">active</text>
</svg>
