<svg xmlns="http://www.w3.org/2000/svg" width="1280" height="720" viewBox="0 0 1280 720" fill="none">
  <rect width="1280" height="720" fill="#0B111B"/>
  <rect x="22" y="20" width="56" height="680" rx="12" fill="#121927" stroke="#243047"/>
  <rect x="96" y="20" width="238" height="680" rx="12" fill="#121927" stroke="#243047"/>
  <rect x="352" y="20" width="906" height="680" rx="16" fill="#0E1624" stroke="#243047"/>
  <rect x="386" y="54" width="838" height="214" rx="18" fill="url(#paint0_linear)"/>
  <text x="430" y="108" fill="#E2E8F0" font-family="Arial, sans-serif" font-size="52" font-weight="700">Query with confidence,</text>
  <text x="430" y="158" fill="#00D4AA" font-family="Arial, sans-serif" font-size="52" font-weight="700">keep context in view.</text>
  <rect x="860" y="86" width="314" height="138" rx="14" fill="#121927" stroke="#2E3C57"/>
  <text x="890" y="128" fill="#8795AB" font-family="Arial, sans-serif" font-size="18">MODELS</text>
  <text x="890" y="174" fill="#E2E8F0" font-family="Arial, sans-serif" font-size="34" font-weight="700">24</text>
  <text x="1004" y="128" fill="#8795AB" font-family="Arial, sans-serif" font-size="18">SAVED</text>
  <text x="1004" y="174" fill="#E2E8F0" font-family="Arial, sans-serif" font-size="34" font-weight="700">18</text>
  <text x="1104" y="128" fill="#8795AB" font-family="Arial, sans-serif" font-size="18">HISTORY</text>
  <text x="1104" y="174" fill="#E2E8F0" font-family="Arial, sans-serif" font-size="34" font-weight="700">52</text>
  <rect x="386" y="292" width="520" height="168" rx="14" fill="#121927" stroke="#243047"/>
  <rect x="926" y="292" width="298" height="168" rx="14" fill="#121927" stroke="#243047"/>
  <rect x="386" y="478" width="400" height="188" rx="14" fill="#121927" stroke="#243047"/>
  <rect x="804" y="478" width="420" height="188" rx="14" fill="#121927" stroke="#243047"/>
  <text x="416" y="328" fill="#00D4AA" font-family="Arial, sans-serif" font-size="18" font-weight="700">LAUNCH PATHS</text>
  <text x="956" y="328" fill="#00D4AA" font-family="Arial, sans-serif" font-size="18" font-weight="700">MODEL LOAD</text>
  <text x="416" y="514" fill="#00D4AA" font-family="Arial, sans-serif" font-size="18" font-weight="700">ACTIVITY SNAPSHOT</text>
  <text x="834" y="514" fill="#00D4AA" font-family="Arial, sans-serif" font-size="18" font-weight="700">MODEL OVERVIEW</text>
  <rect x="416" y="348" width="146" height="82" rx="10" fill="#182132" stroke="#2E3C57"/>
  <rect x="576" y="348" width="146" height="82" rx="10" fill="#182132" stroke="#2E3C57"/>
  <rect x="736" y="348" width="146" height="82" rx="10" fill="#182132" stroke="#2E3C57"/>
  <rect x="956" y="350" width="220" height="12" rx="6" fill="#243047"/>
  <rect x="956" y="350" width="174" height="12" rx="6" fill="#00D4AA"/>
  <rect x="956" y="388" width="220" height="12" rx="6" fill="#243047"/>
  <rect x="956" y="388" width="132" height="12" rx="6" fill="#4A9EFF"/>
  <rect x="956" y="426" width="220" height="12" rx="6" fill="#243047"/>
  <rect x="956" y="426" width="92" height="12" rx="6" fill="#F59E0B"/>
  <defs>
    <linearGradient id="paint0_linear" x1="386" y1="54" x2="1224" y2="268" gradientUnits="userSpaceOnUse">
      <stop stop-color="#141D2E"/>
      <stop offset="1" stop-color="#0D1320"/>
    </linearGradient>
  </defs>
</svg>
